<svg width="94" height="48" viewBox="0 0 94 48" fill="none" xmlns="http://www.w3.org/2000/svg">
<path d="M61.2644 18.8746C60.7839 22.246 58.5233 23.5683 53.8881 23.4305C49.0865 23.2879 44.0094 20.9811 43.5619 20.7349C42.8834 20.3612 42.7093 20.3704 42.9908 19.5927C43.2723 18.8144 44.133 19.3068 44.133 19.3068C44.133 19.3068 45.5936 19.8058 46.4175 20.1638C47.2631 20.531 48.4975 20.9166 49.4949 21.1525C49.5144 19.1967 49.4 16.8732 48.3559 19.0915C47.9296 19.776 46.8612 19.6106 47.1085 18.7119C47.2565 18.1744 47.2712 18.2237 47.2712 18.2237C47.2712 18.2237 47.6172 17.5241 48.1309 16.7371C49.7341 14.2801 50.1013 13.6748 51.8434 11.5965C53.3181 9.83756 55.2891 9.38251 56.4123 9.312C57.1755 9.26427 57.6473 9.88908 57.0881 10.4678C56.8246 10.7406 55.889 10.9554 55.461 11.1729C50.4631 13.5333 50.9035 19.9403 51.122 21.5864C53.387 21.9623 55.4816 21.9211 56.1271 21.8771C57.2048 21.8034 59.5841 21.0782 59.5538 18.4504C59.5256 16.0656 57.906 15.7158 57.0339 15.8373C53.8567 16.2788 54.3915 19.9441 55.5418 17.8777C56.1829 16.7268 56.3527 17.2019 56.4123 18.1646C56.5479 20.346 53.5974 21.1075 52.9856 19.0216C52.1921 16.3162 55.1568 14.0675 57.2509 14.1017C59.1747 14.1332 61.7081 15.7641 61.2644 18.8746ZM53.5568 7.31335C51.6601 7.23091 51.6655 6.83986 51.8434 6.17112C52.0213 5.50183 53.2709 5.6 53.2709 5.6H54.699C54.699 5.6 55.7376 5.63959 56.1271 4.74305C56.5691 3.72393 54.6442 1.62712 52.6998 3.60081C50.5656 5.76759 47.4974 10.0355 45.8464 13.0245C44.1954 16.0136 40.5165 20.3108 39.5641 21.306C38.6117 22.3007 37.0041 23.3871 35.2804 23.0194C33.5573 22.6517 32.0083 20.551 32.9959 18.1646C33.9841 15.7787 36.8576 15.9713 38.136 16.4513C39.4149 16.9313 38.9929 17.5935 38.9929 17.5935C38.9929 17.5935 38.8498 18.6262 37.5649 18.1646C36.9368 17.8576 36.3467 17.7925 35.5662 17.8793C33.8816 18.0664 33.8019 22.6625 36.9938 21.0202C40.4525 19.2412 44.0452 12.6508 45.2753 10.7401C46.5054 8.82874 49.1863 4.97573 50.4153 3.31498C51.6449 1.65478 53.0339 1.10807 54.4132 1.03051C55.793 0.952947 58.0319 2.06047 57.8404 4.45722C57.6484 6.85451 55.4534 7.39525 53.5568 7.31335ZM45.5611 5.6C45.1348 5.46657 40.1618 4.07756 40.0034 7.64746C40.0034 7.64746 39.9915 7.67837 40.0148 7.84325C40.0251 7.91376 40.5685 8.33681 41.2774 7.02752C41.4678 6.67607 41.5839 6.95918 41.5627 7.59864C41.5383 8.33898 41.1858 9.7101 39.5641 9.59783C37.1592 9.43078 38.0449 3.80746 42.7049 3.60081C44.433 3.52434 46.7033 4.17193 46.7033 4.17193C46.7033 4.17193 48.3098 4.54129 47.5597 5.31417C46.8102 6.08705 45.9868 5.73288 45.5611 5.6ZM37.5649 25.5891C38.4734 25.7779 37.9039 26.5394 38.539 27.2271C39.0054 27.7321 39.8776 28.6362 41.9559 26.2508C42.9387 25.1227 44.0712 23.322 44.0712 23.322C44.0712 23.322 44.6347 22.3208 45.2753 22.7336C45.8681 23.1159 45.6028 23.789 45.2644 24.2983C44.0603 26.1104 43.6384 26.8637 42.8237 27.7153C41.4309 29.1704 40.011 30.2617 37.8507 29.0164C36.8001 28.4106 36.7085 26.7314 36.7085 26.7314C36.7085 26.7314 36.4953 25.3673 37.5649 25.5891ZM50.6458 23.5889C51.3558 24.4458 51.6053 24.8862 51.6644 25.3288C51.7235 25.7719 52.8609 31.0584 55.8434 29.3527C55.8407 29.3424 55.8635 29.325 56.0034 29.2339C56.1932 29.178 56.677 28.1139 55.1323 28.6091C54.7516 28.7311 54.9409 28.3596 55.5299 28.109C56.2117 27.8194 57.2454 27.6936 57.3051 29.0712C57.3729 30.637 53.5432 32.544 51.1128 28.576C50.2336 27.1403 50.0812 25.3841 50.0818 25.3847C50.0861 25.3874 49.5611 22.285 50.6458 23.5889Z" fill="white"/>
<path d="M7.01485 46.016C6.78018 46.016 6.58285 45.9413 6.42285 45.792C6.27352 45.632 6.19885 45.4347 6.19885 45.2V38.08C6.19885 37.8347 6.27352 37.6373 6.42285 37.488C6.58285 37.3387 6.78018 37.264 7.01485 37.264C7.26018 37.264 7.45752 37.3387 7.60685 37.488C7.75618 37.6373 7.83085 37.824 7.83085 38.048C8.10818 37.7707 8.43885 37.5573 8.82285 37.408C9.20685 37.248 9.62285 37.168 10.0709 37.168C11.1909 37.168 12.0335 37.5893 12.5989 38.432C12.9082 38.0373 13.3029 37.728 13.7829 37.504C14.2629 37.28 14.8015 37.168 15.3989 37.168C16.3162 37.168 17.0629 37.4667 17.6389 38.064C18.2149 38.6613 18.5029 39.5147 18.5029 40.624V45.2C18.5029 45.4347 18.4282 45.632 18.2789 45.792C18.1295 45.9413 17.9322 46.016 17.6869 46.016C17.4522 46.016 17.2549 45.9413 17.0949 45.792C16.9455 45.632 16.8709 45.4347 16.8709 45.2V40.624C16.8709 39.952 16.7055 39.456 16.3749 39.136C16.0442 38.8053 15.6122 38.64 15.0789 38.64C14.5242 38.64 14.0655 38.832 13.7029 39.216C13.3509 39.6 13.1749 40.0907 13.1749 40.688V45.2C13.1749 45.4347 13.1002 45.632 12.9509 45.792C12.8015 45.9413 12.6042 46.016 12.3589 46.016C12.1242 46.016 11.9269 45.9413 11.7669 45.792C11.6175 45.632 11.5429 45.4347 11.5429 45.2V40.624C11.5429 39.952 11.3775 39.456 11.0469 39.136C10.7162 38.8053 10.2842 38.64 9.75085 38.64C9.19618 38.64 8.73752 38.832 8.37485 39.216C8.01218 39.6 7.83085 40.0907 7.83085 40.688V45.2C7.83085 45.4347 7.75618 45.632 7.60685 45.792C7.45752 45.9413 7.26018 46.016 7.01485 46.016ZM33.6945 46.08C32.9585 46.08 32.2971 45.9253 31.7105 45.616C31.1345 45.296 30.6758 44.832 30.3345 44.224C30.0038 43.616 29.8385 42.8693 29.8385 41.984V38.048C29.8385 37.8133 29.9131 37.6213 30.0625 37.472C30.2225 37.312 30.4198 37.232 30.6545 37.232C30.8891 37.232 31.0811 37.312 31.2305 37.472C31.3905 37.6213 31.4705 37.8133 31.4705 38.048V41.984C31.4705 42.8907 31.7105 43.5573 32.1905 43.984C32.6811 44.4 33.2891 44.608 34.0145 44.608C34.4731 44.608 34.8785 44.5173 35.2305 44.336C35.5931 44.1547 35.8811 43.9093 36.0945 43.6C36.3078 43.2907 36.4145 42.944 36.4145 42.56V38.048C36.4145 37.8027 36.4891 37.6053 36.6385 37.456C36.7985 37.3067 36.9958 37.232 37.2305 37.232C37.4758 37.232 37.6731 37.3067 37.8225 37.456C37.9718 37.6053 38.0465 37.8027 38.0465 38.048V45.184C38.0465 45.4187 37.9718 45.616 37.8225 45.776C37.6731 45.9253 37.4758 46 37.2305 46C36.9958 46 36.7985 45.9253 36.6385 45.776C36.4891 45.616 36.4145 45.4187 36.4145 45.184V45.008C36.0838 45.3387 35.6838 45.6 35.2145 45.792C34.7451 45.984 34.2385 46.08 33.6945 46.08ZM52.9047 46.064C52.1581 46.064 51.4647 45.952 50.8247 45.728C50.1954 45.4933 49.7047 45.2 49.3527 44.848C49.1927 44.6773 49.1234 44.4853 49.1447 44.272C49.1767 44.048 49.2834 43.8667 49.4647 43.728C49.6781 43.5573 49.8861 43.488 50.0887 43.52C50.3021 43.5413 50.4834 43.632 50.6327 43.792C50.8141 43.9947 51.1021 44.1867 51.4967 44.368C51.9021 44.5387 52.3501 44.624 52.8407 44.624C53.4594 44.624 53.9287 44.5227 54.2487 44.32C54.5794 44.1173 54.7501 43.856 54.7607 43.536C54.7714 43.216 54.6167 42.9387 54.2967 42.704C53.9874 42.4693 53.4167 42.2773 52.5847 42.128C51.5074 41.9147 50.7234 41.5947 50.2327 41.168C49.7527 40.7413 49.5127 40.2187 49.5127 39.6C49.5127 39.056 49.6727 38.608 49.9927 38.256C50.3127 37.8933 50.7234 37.6267 51.2247 37.456C51.7261 37.2747 52.2487 37.184 52.7927 37.184C53.4967 37.184 54.1207 37.296 54.6647 37.52C55.2087 37.744 55.6407 38.0533 55.9607 38.448C56.1101 38.6187 56.1794 38.8 56.1687 38.992C56.1581 39.1733 56.0674 39.328 55.8967 39.456C55.7261 39.5733 55.5234 39.6107 55.2887 39.568C55.0541 39.5253 54.8567 39.4293 54.6967 39.28C54.4301 39.024 54.1421 38.848 53.8327 38.752C53.5234 38.656 53.1661 38.608 52.7607 38.608C52.2914 38.608 51.8914 38.688 51.5607 38.848C51.2407 39.008 51.0807 39.2427 51.0807 39.552C51.0807 39.744 51.1287 39.92 51.2247 40.08C51.3314 40.2293 51.5341 40.368 51.8327 40.496C52.1314 40.6133 52.5687 40.7307 53.1447 40.848C54.3501 41.0827 55.1821 41.4187 55.6407 41.856C56.1101 42.2827 56.3447 42.8107 56.3447 43.44C56.3447 43.9307 56.2114 44.3733 55.9447 44.768C55.6887 45.1627 55.3047 45.4773 54.7927 45.712C54.2914 45.9467 53.6621 46.064 52.9047 46.064ZM68.1842 46C67.9496 46 67.7522 45.9253 67.5922 45.776C67.4429 45.616 67.3682 45.4187 67.3682 45.184V38.064C67.3682 37.8187 67.4429 37.6213 67.5922 37.472C67.7522 37.3227 67.9496 37.248 68.1842 37.248C68.4296 37.248 68.6269 37.3227 68.7762 37.472C68.9256 37.6213 69.0002 37.8187 69.0002 38.064V45.184C69.0002 45.4187 68.9256 45.616 68.7762 45.776C68.6269 45.9253 68.4296 46 68.1842 46ZM68.1842 35.824C67.8962 35.824 67.6456 35.7227 67.4322 35.52C67.2296 35.3067 67.1282 35.056 67.1282 34.768C67.1282 34.48 67.2296 34.2347 67.4322 34.032C67.6456 33.8187 67.8962 33.712 68.1842 33.712C68.4722 33.712 68.7176 33.8187 68.9202 34.032C69.1336 34.2347 69.2402 34.48 69.2402 34.768C69.2402 35.056 69.1336 35.3067 68.9202 35.52C68.7176 35.7227 68.4722 35.824 68.1842 35.824ZM84.8043 46.064C83.951 46.064 83.1883 45.872 82.5163 45.488C81.855 45.0933 81.3323 44.5653 80.9483 43.904C80.575 43.232 80.3883 42.4747 80.3883 41.632C80.3883 40.768 80.575 40 80.9483 39.328C81.3217 38.656 81.8337 38.1333 82.4843 37.76C83.135 37.376 83.8817 37.184 84.7243 37.184C85.983 37.184 87.0283 37.664 87.8603 38.624C88.0097 38.7947 88.063 38.9707 88.0203 39.152C87.9777 39.3333 87.8603 39.4933 87.6683 39.632C87.519 39.7387 87.3537 39.776 87.1723 39.744C86.991 39.7013 86.8257 39.6053 86.6763 39.456C86.1537 38.9013 85.503 38.624 84.7243 38.624C83.903 38.624 83.2363 38.9013 82.7243 39.456C82.2123 40 81.9563 40.7253 81.9563 41.632C81.9563 42.208 82.0737 42.72 82.3083 43.168C82.5537 43.616 82.8897 43.9733 83.3163 44.24C83.743 44.496 84.239 44.624 84.8043 44.624C85.5297 44.624 86.1163 44.4373 86.5643 44.064C86.735 43.9253 86.911 43.8507 87.0923 43.84C87.2737 43.8187 87.4337 43.8667 87.5723 43.984C87.7537 44.1333 87.855 44.304 87.8763 44.496C87.8977 44.6773 87.8337 44.8427 87.6843 44.992C86.9163 45.7067 85.9563 46.064 84.8043 46.064Z" fill="white"/>
</svg>
