<svg width="17" height="19" viewBox="0 0 17 19" fill="none" xmlns="http://www.w3.org/2000/svg">
<path d="M8.22762 0.83334C8.08103 0.838347 7.93987 0.890102 7.82479 0.981046L1.31055 6.11313C0.48376 6.76471 0 7.76036 0 8.813V17.5625C0 18.1875 0.520853 18.7083 1.14583 18.7083H5.72917C6.35415 18.7083 6.875 18.1875 6.875 17.5625V12.9792C6.875 12.8439 6.96894 12.75 7.10417 12.75H9.39583C9.53106 12.75 9.625 12.8439 9.625 12.9792V17.5625C9.625 18.1875 10.1459 18.7083 10.7708 18.7083H15.3542C15.9791 18.7083 16.5 18.1875 16.5 17.5625V8.813C16.5 7.76036 16.0162 6.76471 15.1895 6.11313L8.67521 0.981046C8.54808 0.880613 8.38956 0.828303 8.22762 0.83334ZM8.25 2.39633L14.339 7.19361C14.8359 7.5852 15.125 8.18079 15.125 8.813V17.3333H11V12.9792C11 12.1015 10.2735 11.375 9.39583 11.375H7.10417C6.22648 11.375 5.5 12.1015 5.5 12.9792V17.3333H1.375V8.813C1.375 8.18079 1.66409 7.5852 2.16097 7.19361L8.25 2.39633Z" fill="white"/>
</svg>
