<svg width="18" height="18" viewBox="0 0 18 18" fill="none" xmlns="http://www.w3.org/2000/svg">
<path d="M5.17262 0C2.32393 0 0 2.32393 0 5.17262V12.6531C0 15.4964 2.32393 17.8204 5.17262 17.8204H12.6531C15.4964 17.8204 17.8204 15.4964 17.8204 12.6477V5.17262C17.8204 2.32393 15.4964 0 12.6477 0H5.17262ZM5.17262 1.3708H12.6477C14.7575 1.3708 16.4496 3.06288 16.4496 5.17262V12.6477C16.4496 14.7575 14.7575 16.4496 12.6531 16.4496H5.17262C3.06288 16.4496 1.3708 14.7575 1.3708 12.6531V5.17262C1.3708 3.06288 3.06288 1.3708 5.17262 1.3708ZM14.3934 2.74159C14.0132 2.74159 13.708 3.04681 13.708 3.42699C13.708 3.80718 14.0132 4.11239 14.3934 4.11239C14.7736 4.11239 15.0788 3.80718 15.0788 3.42699C15.0788 3.04681 14.7736 2.74159 14.3934 2.74159ZM8.91018 4.11239C6.27033 4.11239 4.11239 6.27033 4.11239 8.91018C4.11239 11.55 6.27033 13.708 8.91018 13.708C11.55 13.708 13.708 11.55 13.708 8.91018C13.708 6.27033 11.55 4.11239 8.91018 4.11239ZM8.91018 5.48319C10.8111 5.48319 12.3372 7.00927 12.3372 8.91018C12.3372 10.8111 10.8111 12.3372 8.91018 12.3372C7.00927 12.3372 5.48319 10.8111 5.48319 8.91018C5.48319 7.00927 7.00927 5.48319 8.91018 5.48319Z" fill="white"/>
</svg>
