<svg width="90" height="91" viewBox="0 0 90 91" fill="none" xmlns="http://www.w3.org/2000/svg">
<path d="M85.1186 53.3328C83.7671 62.8591 77.4091 66.5955 64.3729 66.2062C50.8683 65.8032 36.5888 59.2852 35.3303 58.5894C33.422 57.5335 32.9323 57.5596 33.724 55.3619C34.5157 53.1627 36.9366 54.5542 36.9366 54.5542C36.9366 54.5542 41.0446 55.9642 43.3617 56.9757C45.7398 58.0132 49.2117 59.1028 52.0169 59.7695C52.0718 54.2431 51.75 47.6777 48.8135 53.9458C47.6146 55.8799 44.6095 55.4125 45.3051 52.873C45.7215 51.3543 45.7627 51.4937 45.7627 51.4937C45.7627 51.4937 46.7359 49.5167 48.1805 47.293C52.6896 40.3505 53.7224 38.6402 58.622 32.7675C62.7696 27.7974 68.313 26.5116 71.4722 26.3124C73.6185 26.1775 74.9456 27.943 73.3729 29.5782C72.6315 30.3491 70.0002 30.956 68.7966 31.5706C54.7398 38.2402 55.9785 56.3443 56.5932 60.9955C62.9634 62.0576 68.8546 61.9411 70.6698 61.817C73.7008 61.6086 80.3929 59.5595 80.3075 52.1343C80.2281 45.3957 75.6732 44.4072 73.2203 44.7505C64.2844 45.998 65.7885 56.355 69.0239 50.516C70.8269 47.2639 71.3044 48.6064 71.4722 51.3267C71.8536 57.4906 63.5552 59.6423 61.8346 53.7481C59.6029 46.1037 67.9408 39.7498 73.8305 39.8463C79.2412 39.9352 86.3664 44.5436 85.1186 53.3328ZM63.4408 20.6649C58.1064 20.432 58.1217 19.327 58.622 17.4374C59.1224 15.5462 62.6369 15.8236 62.6369 15.8236H66.6534C66.6534 15.8236 69.5746 15.9355 70.6698 13.4022C71.913 10.5225 66.4993 4.59765 61.0307 10.1746C55.0281 16.2971 46.3988 28.3568 41.7554 36.8027C37.112 45.2486 26.765 57.391 24.0864 60.2032C21.4078 63.0139 16.8864 66.0836 12.0386 65.0446C7.19232 64.0055 2.83571 58.0699 5.61351 51.3267C8.39283 44.585 16.4745 45.129 20.07 46.4854C23.6669 47.8417 22.4801 49.7129 22.4801 49.7129C22.4801 49.7129 22.0774 52.6309 18.4637 51.3267C16.6972 50.4593 15.0376 50.2753 12.8425 50.5206C8.10453 51.0493 7.88029 64.0361 16.8574 59.3956C26.585 54.3688 36.6895 35.7468 40.1491 30.3476C43.6088 24.9469 51.149 14.0596 54.6056 9.36695C58.0637 4.67581 61.9703 3.13099 65.8495 2.91184C69.7302 2.69268 76.0271 5.82216 75.4886 12.5945C74.9486 19.3684 68.7752 20.8963 63.4408 20.6649ZM40.953 15.8236C39.754 15.4466 25.7674 11.5217 25.322 21.609C25.322 21.609 25.2884 21.6963 25.354 22.1622C25.383 22.3615 26.9115 23.5568 28.9052 19.8573C29.4406 18.8642 29.7671 19.6642 29.7076 21.471C29.6389 23.563 28.6474 27.4373 24.0864 27.12C17.3227 26.648 19.8137 10.7585 32.9201 10.1746C37.7801 9.95851 44.1656 11.7884 44.1656 11.7884C44.1656 11.7884 48.6839 12.832 46.5742 15.0159C44.4661 17.1998 42.1505 16.1991 40.953 15.8236ZM18.4637 72.3058C21.0188 72.8391 19.4171 74.9908 21.2034 76.9341C22.5152 78.3609 24.9681 80.9157 30.8135 74.1755C33.5776 70.9878 36.7627 65.8997 36.7627 65.8997C36.7627 65.8997 38.3476 63.0706 40.1491 64.2369C41.8164 65.3173 41.0705 67.2192 40.1186 68.6583C36.7322 73.7786 35.5454 75.9073 33.2542 78.3134C29.3369 82.4252 25.3434 85.5087 19.2676 81.99C16.3128 80.2781 16.055 75.5333 16.055 75.5333C16.055 75.5333 15.4556 71.679 18.4637 72.3058ZM55.2539 66.6537C57.2507 69.0752 57.9524 70.3196 58.1186 71.5702C58.2849 72.8223 61.4837 87.76 69.872 82.9402C69.8644 82.911 69.9285 82.862 70.322 82.6045C70.8559 82.4467 72.2166 79.4398 67.8722 80.839C66.8013 81.1838 67.3337 80.1341 68.9903 79.426C70.9078 78.6076 73.8152 78.2521 73.983 82.1448C74.1737 86.5692 63.4027 91.9577 56.5673 80.7455C54.0946 76.6889 53.6659 71.7265 53.6674 71.728C53.6796 71.7357 52.203 62.9695 55.2539 66.6537Z" fill="white"/>
</svg>
