<svg width="20" height="18" viewBox="0 0 20 18" fill="none" xmlns="http://www.w3.org/2000/svg">
<path d="M18.4037 0.00154181C18.1337 0.0132302 17.8821 0.090399 17.6606 0.178238C17.4532 0.260119 16.6605 0.593692 15.4119 1.11903C14.1622 1.64482 12.5075 2.34183 10.7424 3.08657C7.21217 4.57604 3.24326 6.25267 1.21037 7.11079C1.13392 7.14304 0.867193 7.22665 0.584091 7.44349C0.30099 7.66033 0 8.10965 0 8.61032C0 9.01404 0.196103 9.41512 0.442936 9.65458C0.689769 9.89404 0.95095 10.0123 1.17467 10.1019C1.98641 10.4269 5.21624 11.7725 5.69164 11.9633C5.85895 12.4662 6.05793 14.8662 6.26925 15.5365C6.40855 15.9788 6.54116 16.2558 6.7138 16.4757C6.80013 16.5856 6.90047 16.682 7.02207 16.7575C7.07068 16.7876 7.12397 16.8109 7.17783 16.8323L7.18108 16.8339C7.19349 16.8388 7.20419 16.8471 7.21677 16.8514C7.24052 16.8595 7.2564 16.8605 7.28816 16.8673C7.4147 16.9074 7.54245 16.9326 7.65646 16.9326C8.14256 16.9326 8.44012 16.6699 8.44012 16.6699L8.45797 16.6572L10.9582 14.5352L13.9906 17.3496C14.0333 17.4089 14.4315 17.945 15.3097 17.945C15.8311 17.945 16.2448 17.6883 16.5103 17.4149C16.7759 17.1415 16.9413 16.8543 17.0117 16.4932V16.4916C17.0774 16.1504 19.8721 2.07414 19.8721 2.07414L19.8672 2.09325C19.949 1.72688 19.9705 1.38568 19.8802 1.04899C19.7899 0.712288 19.5521 0.389917 19.2572 0.216443C18.9623 0.0430071 18.6738 -0.0101466 18.4037 0.00154181ZM18.248 1.70483C18.244 1.72862 18.251 1.71666 18.2447 1.74463L18.2431 1.75418L18.2415 1.76373C18.2415 1.76373 15.4815 15.6599 15.3794 16.1892C15.3869 16.1492 15.3528 16.2287 15.3178 16.2767C15.2683 16.2433 15.1669 16.2003 15.1669 16.2003L15.1507 16.1828L11.0085 12.3385L8.07993 14.8218L7.97555 10.9664C7.97555 10.9664 14.3975 5.86793 14.7256 5.54599C14.9898 5.28844 15.0452 5.19866 15.0452 5.10982C15.0452 4.99082 14.982 4.90447 14.8408 4.90447C14.7137 4.90447 14.5428 5.02571 14.4514 5.08276C13.2609 5.82733 8.03446 8.81592 5.69164 10.1528C5.31933 10.0033 2.73275 8.96453 1.85611 8.6135C1.86275 8.61065 1.86056 8.61166 1.86747 8.60873C3.90089 7.75039 7.86816 6.07377 11.3979 4.58451C13.1628 3.83987 14.8187 3.14234 16.0674 2.61697C17.2968 2.09969 18.1511 1.74368 18.248 1.70483Z" fill="white"/>
</svg>
