<svg width="25" height="18" viewBox="0 0 25 18" fill="none" xmlns="http://www.w3.org/2000/svg">
<path d="M11.9487 0C8.2631 0 4.80215 0.279144 2.95936 0.66951C1.73157 0.948654 0.66951 1.78609 0.447067 3.07059C0.224624 4.40961 0 6.42032 0 8.93261C0 11.4449 0.222443 13.3989 0.501587 14.7946C0.726211 16.0224 1.78609 16.9166 3.01389 17.1957C4.97008 17.5861 8.31762 17.8652 12.0032 17.8652C15.6888 17.8652 19.0363 17.5861 20.9903 17.1957C22.2203 16.9166 23.2802 16.0791 23.5026 14.7946C23.7273 13.3989 24.0064 11.3904 24.0609 8.87809C24.0609 6.3658 23.7818 4.35508 23.5026 2.95936C23.2802 1.73157 22.2203 0.837433 20.9903 0.558288C19.0363 0.279144 15.6321 0 11.9487 0ZM11.9487 1.11658C15.9679 1.11658 19.2042 1.45024 20.7679 1.72939C21.6053 1.95401 22.2748 2.5123 22.3861 3.23851C22.7219 5.02459 22.9443 6.92408 22.9443 8.87809C22.8898 11.277 22.6107 13.231 22.3861 14.6267C22.2203 15.6866 21.1037 16.0224 20.7679 16.1358C18.7572 16.5262 15.4074 16.8032 12.0577 16.8032C8.70799 16.8032 5.30374 16.5807 3.34973 16.1358C2.5123 15.9112 1.84279 15.3529 1.73157 14.6267C1.2845 13.0631 1.11658 10.9978 1.11658 8.93261C1.11658 6.36361 1.3412 4.46631 1.56364 3.29521C1.73157 2.23315 2.90266 1.89731 3.18181 1.78609C5.02459 1.39572 8.43103 1.11658 11.9487 1.11658ZM10.4304 5.30608C9.76375 4.92343 8.93261 5.4047 8.93261 6.17337V11.6757C8.93261 12.4436 9.7621 12.9249 10.4288 12.544L15.2326 9.79892C15.9037 9.41545 15.9046 8.44815 15.2343 8.06339L10.4304 5.30608ZM10.0492 6.3658L14.5155 8.93261L10.0492 11.4994V6.3658Z" fill="white"/>
</svg>
